<svg width="50" height="50" viewBox="0 0 50 50" fill="none" xmlns="http://www.w3.org/2000/svg">
<rect width="50" height="50" rx="25" fill="#191D1F"/>
<path d="M33.7305 13.9883C33.6133 14.293 33.4316 14.7969 33.1855 15.5C32.9512 16.2031 32.6699 17.041 32.3418 18.0137C32.0137 18.9863 31.6504 20.0645 31.252 21.248C30.8652 22.4199 30.4609 23.6387 30.0391 24.9043C29.6172 26.1582 29.1953 27.4238 28.7734 28.7012C28.3633 29.9668 27.9707 31.1797 27.5957 32.3398C27.2207 33.5 26.875 34.5664 26.5586 35.5391C26.2422 36.5117 25.9785 37.332 25.7676 38C25.4629 38.0469 25.1406 38.0762 24.8008 38.0879C24.5078 38.1113 24.168 38.1172 23.7812 38.1055C23.4062 38.0938 23.0137 38.0586 22.6035 38L22.498 37.8242C22.6035 37.625 22.7559 37.2734 22.9551 36.7695C23.1543 36.2539 23.3828 35.6328 23.6406 34.9062C23.9102 34.1797 24.2031 33.3652 24.5195 32.4629C24.8477 31.5488 25.1816 30.5996 25.5215 29.6152L22.4629 29.7207C21.3613 31.3262 20.2891 32.8262 19.2461 34.2207C18.2031 35.6152 17.2188 36.875 16.293 38C16.0586 38.0234 15.7949 38.041 15.502 38.0527C15.2559 38.0645 14.9629 38.0645 14.623 38.0527C14.2715 38.0527 13.8848 38.0352 13.4629 38L13.498 37.7539C13.5566 37.7539 13.6562 37.7188 13.7969 37.6484C13.9258 37.5781 14.0547 37.4785 14.1836 37.3496C15.6719 35.8262 17.1719 34.168 18.6836 32.375C20.1953 30.5703 21.6484 28.7012 23.043 26.7676C24.4375 24.834 25.7441 22.877 26.9629 20.8965C28.1816 18.9043 29.248 16.959 30.1621 15.0605C30.1621 14.8965 30.127 14.7793 30.0566 14.709C29.7402 14.7324 29.4062 14.7559 29.0547 14.7793C28.7031 14.791 28.3633 14.8145 28.0352 14.8496C27.707 14.8848 27.3965 14.9258 27.1035 14.9727C26.8223 15.0195 26.5938 15.0781 26.418 15.1484C26.2656 15.207 26.1016 15.3066 25.9258 15.4473C25.75 15.5762 25.5859 15.7402 25.4336 15.9395C25.2812 16.1387 25.1523 16.3613 25.0469 16.6074C24.9531 16.8418 24.9062 17.082 24.9062 17.3281C24.9062 17.4805 24.918 17.6738 24.9414 17.9082C24.9648 18.1309 25.0117 18.3594 25.082 18.5938L24.8711 18.8047C24.2734 18.3711 23.7988 17.9199 23.4473 17.4512C23.0957 16.9707 22.9199 16.5254 22.9199 16.1152C22.9199 15.8809 22.9961 15.623 23.1484 15.3418C23.3125 15.0605 23.5117 14.8027 23.7461 14.5684C23.9805 14.3223 24.2324 14.1172 24.502 13.9531C24.7715 13.7891 25.0117 13.707 25.2227 13.707C25.5859 13.707 26.0254 13.7188 26.541 13.7422C27.0684 13.7539 27.6191 13.7715 28.1934 13.7949C28.7793 13.8184 29.3652 13.8418 29.9512 13.8652C30.5371 13.877 31.0762 13.8828 31.5684 13.8828C31.7793 13.8828 31.9668 13.8828 32.1309 13.8828C32.2949 13.8828 32.4473 13.8828 32.5879 13.8828C32.7402 13.8711 32.8926 13.8652 33.0449 13.8652C33.209 13.8535 33.3965 13.8359 33.6074 13.8125L33.7305 13.9883ZM25.8027 28.7891C26.1074 27.875 26.418 26.9492 26.7344 26.0117C27.0508 25.0742 27.3555 24.1602 27.6484 23.2695C27.9414 22.3672 28.2227 21.5059 28.4922 20.6855C28.7617 19.8652 29.0078 19.1094 29.2305 18.418C28.3047 20.2109 27.3086 21.9863 26.2422 23.7441C25.1758 25.502 24.0918 27.2188 22.9902 28.8945L25.8027 28.7891Z" fill="white"/>
</svg>
